<?xml version="1.0" standalone="no"?>
<!DOCTYPE svg PUBLIC "-//W3C//DTD SVG 20010904//EN"
 "http://www.w3.org/TR/2001/REC-SVG-20010904/DTD/svg10.dtd">
<svg version="1.0" xmlns="http://www.w3.org/2000/svg"
 width="64.000000pt" height="86.000000pt" viewBox="0 0 64.000000 86.000000"
 preserveAspectRatio="xMidYMid meet">

<g transform="translate(0.000000,86.000000) scale(0.100000,-0.100000)"
fill="#000000" stroke="none">
<path d="M452 511 c-70 -60 -163 -64 -248 -9 -54 34 -65 32 -102 -22 -34 -51
-55 -135 -49 -195 28 -275 394 -348 516 -104 55 111 38 244 -42 327 -17 17
-33 32 -36 32 -4 -1 -21 -14 -39 -29z m-237 -48 c11 -6 32 -16 48 -22 l27 -11
0 -179 c0 -99 -4 -182 -8 -185 -5 -3 -18 -2 -30 1 -21 5 -22 10 -22 164 0 99
-4 159 -10 159 -6 0 -10 -55 -10 -145 0 -151 -4 -163 -42 -128 -16 14 -18 34
-19 162 0 109 -3 140 -10 121 -6 -14 -9 -71 -7 -127 1 -56 0 -104 -3 -108 -4
-3 -16 14 -28 38 -39 80 -21 216 36 279 14 16 19 16 37 5 12 -8 30 -19 41 -24z
m309 5 c13 -18 32 -57 42 -87 34 -104 -12 -225 -106 -283 -88 -53 -85 -59 -88
153 l-2 186 44 17 c24 9 50 24 56 32 18 21 26 18 54 -18z m-172 -219 c2 -138
0 -183 -10 -191 -8 -7 -16 -7 -21 -2 -10 10 -15 113 -13 267 2 99 3 107 22
107 18 0 19 -9 22 -181z"/>
<path d="M463 406 c-39 -20 -42 -24 -43 -63 l0 -43 55 0 55 0 0 38 c-1 20 -6
49 -13 63 l-12 26 -42 -21z"/>
<path d="M420 185 l0 -66 31 23 c31 23 69 76 69 97 0 7 -19 11 -50 11 l-50 0
0 -65z"/>
</g>
</svg>
